<?xml version="1.0" encoding="utf-8"?>
<!-- Generator: Adobe Illustrator 16.0.0, SVG Export Plug-In . SVG Version: 6.00 Build 0)  -->
<!DOCTYPE svg PUBLIC "-//W3C//DTD SVG 1.1//EN" "http://www.w3.org/Graphics/SVG/1.1/DTD/svg11.dtd">
<svg version="1.1" id="Layer_1" xmlns="http://www.w3.org/2000/svg" xmlns:xlink="http://www.w3.org/1999/xlink" x="0px" y="0px"
	 width="1215.161px" height="731.756px" viewBox="2108.369 4009.356 1215.161 731.756"
	 enable-background="new 2108.369 4009.356 1215.161 731.756" xml:space="preserve">
<g>
	<path fill="#FFFFFF" d="M3275.923,4042.044c-9.204-23.07-24.312-31.032-42.303-32.136h-127.995
		c-9.342,0.828-12.359,2.208-18.131,9.065c-8.924,10.445-28.151,35.71-28.151,35.71h-27.607c-1.783-7.686-3.843-14.281-6.178-19.772
		c-7.827-21.981-19.776-24.175-38.176-25.279h-396.354c-291.149,0.276-430.959,216.453-458.01,278.793
		c-12.363,28.562-25.686,75.27-24.585,99.153c1.238,26.369,14.285,63.459,20.601,77.74
		c41.063,92.558,205.313,276.859,463.095,275.771h397.999c17.165,0,28.839-10.17,35.158-26.921c1.097-2.193,2.332-5.491,3.156-8.237
		h34.333c0,0,15.796,20.325,22.802,29.391c3.156,3.573,6.864,6.044,18.814,5.768h137.747c20.324-1.933,30.901-0.276,43.947-47.798
		C3337.721,4506.52,3337.448,4192.569,3275.923,4042.044"/>
	<path d="M3275.923,4042.32c-9.204-23.347-24.312-31.032-42.303-32.412h-127.995c-9.342,0.828-12.359,2.47-18.131,9.341
		c-8.924,10.169-28.151,35.434-28.151,35.434l-27.607-0.276c-1.783-7.133-3.98-13.729-6.178-19.496
		c-7.827-21.705-19.776-24.175-38.176-25.555h-396.354c-291.149,0.552-430.959,216.453-458.148,279.069
		c-12.225,28.562-25.409,75.27-24.447,99.153c1.238,26.369,14.285,63.734,20.601,77.74
		c41.063,92.558,205.313,276.584,463.095,275.771h397.999c17.165,0,28.977-10.17,35.158-26.645c1.097-2.47,2.193-5.491,3.156-8.514
		h34.333c0,0,15.796,20.325,22.802,29.391c3.156,3.835,6.864,6.044,18.814,5.768h137.747c20.324-1.656,31.035-0.276,43.947-47.798
		C3337.721,4506.243,3337.448,4192.293,3275.923,4042.32 M3132.132,4200.53c-3.298-32.412-7.141-63.444-11.949-90.641H3271.8
		c6.593,29.114,11.674,59.333,15.244,90.641H3132.132z M3034.213,4200.53h-397.865c0,0-4.257,0.552-4.805-5.768
		c-0.272-3.574-9.752-75.531-10.301-80.195c-0.824-4.678,4.123-4.678,4.123-4.678h397.719
		C3027.479,4136.534,3031.19,4167.842,3034.213,4200.53 M2534.311,4628.191c0.276,0.276,0.821,0.276,1.097,0.276
		c19.504,0.828,14.009-5.769,4.119-10.155c-19.772-9.065-34.882-21.152-39.415-50.267c-1.097-7.424-0.272-13.191,0.828-18.684
		c6.865,1.933,13.184,2.194,17.579,1.656c13.457-1.104,14.83-7.976,8.924-8.789c-23.347-3.298-32.823-17.303-36.803-30.494
		c-5.361-17.304-0.276-33.24,13.729-44.5c7.417-6.319,21.701-11.811,35.158-12.9c1.925,5.491,4.26,10.983,6.458,14.833
		c-2.746,0.537-6.182,0.813-9.48,0.813c0,3.021,0.966,9.342,0.966,13.191c24.167,0.828,42.709-10.17,49.853-22.257
		c-4.809-3.021-9.065-5.768-11.401-7.686c-2.06,1.38-6.73,6.32-14.285,10.983c-3.294-6.044-5.63-12.363-4.533-23.898
		c2.473-23.07,28.293-31.86,59.194-26.645c45.182,7.7,67.842,43.962,79.792,70.33c1.645,3.56,3.156,5.216,7.278,3.283
		c26.507-14.281,80.616-37.903,92.562-43.119c7.555-3.298,7.007-6.872-6.315-8.237c-5.357-0.552-13.185,0.552-21.697,2.746
		c-7.417-15.109-13.595-39.284-1.101-57.4c8.927-13.468,23.898-21.981,41.888-22.809c13.05-0.538,22.521,4.402,29.39,11.535
		c30.764,32.413,41.612,85.701,42.985,100.81c1.101,11.259,1.648,23.622-12.222,34.605c-36.804,30.219-100.669,53.565-148.32,74.166
		c-7.279,3.021-4.671,3.573-10.853,16.475c-18.814,40.925-51.364,73.337-113.987,73.062c-22.798,0-43.123-7.134-54.8-21.967
		C2535.131,4640.279,2534.034,4634.235,2534.311,4628.191 M2854.163,4360.934c-15.243-16.475-32.961-22.519-51.226-21.415
		c-19.5,1.366-45.869,14.558-57.404,40.649c-10.714,22.519-4.671,46.142,4.395,63.72c-7.006,2.47-14.284,5.216-21.015,7.7
		c-9.748-15.385-17.165-40.111-17.441-56.034c-0.962-55.483,40.101-97.789,92.566-99.706c57.68-2.208,86.245,48.059,91.461,79.919
		c2.477,17.041,0,35.434-5.768,47.521C2883.005,4402.688,2872.018,4380.445,2854.163,4360.934 M2450.396,4255.736
		c-7.965,57.415-47.107,106.854-101.627,113.45c-49.442,6.043-79.93-15.662-90.778-48.901c-18.265,4.954-38.452,3.574-17.717-7.133
		c12.222-6.319,32.684-18.131,43.537-24.727v0.276c0,21.153,11.949,38.456,27.741,38.456c15.516,0,28.29-21.966,28.29-42.843
		c0-10.722-1.373-22.257-5.495-29.667c29.667-22.794,54.938-46.693,75.125-69.226c18.542-19.772,32.136-37.075,42.16-47.506
		c8.379-8.252,2.75,8.513-0.272,16.199c-2.749,7.424-7.689,17.303-15.795,29.39
		C2450.672,4203.276,2453.556,4230.196,2450.396,4255.736 M2313.474,4281.829c0.276,7.976-4.119,15.109-9.338,14.833
		c-4.809,0-9.476-6.581-9.752-14.557c5.495-3.283,11.125-6.857,16.344-10.431
		C2312.649,4273.868,2313.474,4277.718,2313.474,4281.829 M3063.327,4341.989c-1.373-66.189-11.125-186.496-25.82-261.489h24.72
		c15.105,74.993,24.723,195.024,26.233,261.489c1.373,71.682-9.89,251.32-28.845,339.491h-24.857
		C3053.985,4593.31,3064.838,4413.671,3063.327,4341.989"/>
</g>
</svg>
